<?xml version="1.0" standalone="no"?>
<svg xmlns:xlink="http://www.w3.org/1999/xlink" id="wave" style="transform:rotate(0deg); transition: 0.3s" viewBox="0 0 1440 120" version="1.1" xmlns="http://www.w3.org/2000/svg"><defs><linearGradient id="sw-gradient-0" x1="0" x2="0" y1="1" y2="0"><stop stop-color="rgba(32, 35, 42, 1)" offset="0%"/><stop stop-color="rgba(52, 214, 155, 1)" offset="100%"/></linearGradient></defs><path style="transform:translate(0, 0px); opacity:1" fill="url(#sw-gradient-0)" d="M0,60L18.5,54C36.9,48,74,36,111,28C147.7,20,185,16,222,28C258.5,40,295,68,332,68C369.2,68,406,40,443,32C480,24,517,36,554,52C590.8,68,628,88,665,90C701.5,92,738,76,775,68C812.3,60,849,60,886,56C923.1,52,960,44,997,38C1033.8,32,1071,28,1108,24C1144.6,20,1182,16,1218,20C1255.4,24,1292,36,1329,38C1366.2,40,1403,32,1440,24C1476.9,16,1514,8,1551,18C1587.7,28,1625,56,1662,64C1698.5,72,1735,60,1772,60C1809.2,60,1846,72,1883,76C1920,80,1957,76,1994,72C2030.8,68,2068,64,2105,68C2141.5,72,2178,84,2215,74C2252.3,64,2289,32,2326,22C2363.1,12,2400,24,2437,40C2473.8,56,2511,76,2548,74C2584.6,72,2622,48,2640,36L2658.5,24L2658.5,120L2640,120C2621.5,120,2585,120,2548,120C2510.8,120,2474,120,2437,120C2400,120,2363,120,2326,120C2289.2,120,2252,120,2215,120C2178.5,120,2142,120,2105,120C2067.7,120,2031,120,1994,120C1956.9,120,1920,120,1883,120C1846.2,120,1809,120,1772,120C1735.4,120,1698,120,1662,120C1624.6,120,1588,120,1551,120C1513.8,120,1477,120,1440,120C1403.1,120,1366,120,1329,120C1292.3,120,1255,120,1218,120C1181.5,120,1145,120,1108,120C1070.8,120,1034,120,997,120C960,120,923,120,886,120C849.2,120,812,120,775,120C738.5,120,702,120,665,120C627.7,120,591,120,554,120C516.9,120,480,120,443,120C406.2,120,369,120,332,120C295.4,120,258,120,222,120C184.6,120,148,120,111,120C73.8,120,37,120,18,120L0,120Z"/></svg>